<svg width="200" height="202" viewBox="0 0 200 202" fill="none" xmlns="http://www.w3.org/2000/svg">
<path d="M76.7075 95.7402L45.9728 99.8312V101.841H46.0642C71.4493 101.841 51.5985 101.808 78.1797 101.808L76.7075 95.7402Z" fill="#0062FF" stroke="#0062FF" stroke-width="0.390624"/>
<path d="M63.3536 28.3177C70.8972 28.3177 77.0125 22.2023 77.0125 14.6587C77.0125 7.11508 70.8972 0.999756 63.3536 0.999756C55.8099 0.999756 49.6946 7.11508 49.6946 14.6587C49.6946 22.2023 55.8099 28.3177 63.3536 28.3177Z" fill="#0062FF" stroke="#0062FF" stroke-width="0.390624"/>
<path d="M95.3668 77.6988C94.5109 74.1699 91.3512 71.7481 87.8086 71.7481C87.0821 71.7481 88.2586 71.6192 70.3618 74.002C69.454 81.3422 62.6173 86.6972 55.1556 85.6211L35.172 82.7508C34.7091 83.9359 34.5294 85.2508 34.7091 86.6015C35.2767 90.8656 39.1943 93.8625 43.4532 93.291L81.8856 88.175L85.1922 101.809H86.5235C88.7711 98.1859 91.766 95.0726 95.3531 92.6593C96.382 91.9672 97.4477 91.3457 98.541 90.7894L95.3668 77.6988Z" fill="#0062FF" stroke="#0062FF" stroke-width="0.390624"/>
<path d="M146.705 94.7512C146.578 94.7508 112.384 94.7512 112.258 94.7512C103.71 94.7504 96.0219 99.3539 92.016 106.6L146.023 111.721H81.5496C77.9672 111.721 75.0625 114.625 75.0625 118.208C75.0625 121.791 77.9672 124.695 81.5496 124.695C153.074 124.695 150.647 124.648 150.647 124.648C155.09 124.705 158.883 121.078 158.907 116.481L158.955 107.214C158.99 100.422 153.505 94.7859 146.705 94.7512Z" fill="#0062FF" stroke="#0062FF" stroke-width="0.390624"/>
<path d="M71.9149 108.968C70.809 108.968 16.7552 108.968 13.8888 108.968C9.58963 108.968 6.1037 112.454 6.1037 116.753C6.1037 121.053 9.58924 124.539 13.8888 124.539C15.7939 124.539 67.5239 124.539 69.5758 124.539C68.6715 122.987 68.0841 121.219 67.9161 119.312C67.561 115.276 69.1544 111.521 71.9149 108.968Z" fill="#0062FF" stroke="#0062FF" stroke-width="0.390624"/>
<path d="M198.938 138.3C198.938 134.578 195.919 131.56 192.197 131.56C187.524 131.56 12.9951 131.56 7.80291 131.56C4.08066 131.56 1.0623 134.577 1.0623 138.3C1.0623 141.461 3.2412 144.106 6.17674 144.835C6.17635 144.867 6.17401 144.899 6.17401 144.932V188.508C6.17401 195.396 11.7779 201 18.6654 201C22.3876 201 25.406 197.982 25.406 194.259C25.406 190.872 22.9087 188.07 19.6552 187.591V145.922H180.344V187.591C177.091 188.07 174.594 190.873 174.594 194.259C174.594 197.982 177.612 201 181.334 201C188.222 201 193.826 195.396 193.826 188.509V144.932C193.826 144.899 193.823 144.867 193.823 144.835C196.758 144.106 198.938 141.461 198.938 138.3Z" fill="#0062FF" stroke="#0062FF" stroke-width="0.390624"/>
<path d="M108.437 56.6273L85.6676 34.5309C84.4379 33.3375 82.7918 32.6699 81.0785 32.6699C71.9446 32.6699 54.2872 32.6699 45.6294 32.6699C43.4325 32.6699 41.3798 33.7648 40.1564 35.5894L27.4177 54.5832C27.4169 54.5839 20.9169 64.2761 20.9169 64.2761C19.4947 66.3972 19.4267 69.1808 20.7611 71.3726C21.7541 73.0038 23.4626 74.1835 25.4537 74.4694L56.1251 78.8745C59.736 79.3933 63.0712 76.8745 63.5848 73.2882C64.102 69.6855 61.6012 66.3456 57.9985 65.8281L37.7013 62.9128C41.8919 56.6644 41.7474 56.88 45.9731 50.5793V57.216L58.9669 59.082C63.8087 59.7769 67.6919 62.9703 69.461 67.2456L80.8793 65.4738V48.2492L95.8156 62.7445L94.0484 66.3288C97.9371 68.1644 100.92 71.6804 101.99 76.0925L102.63 78.7288L109.758 64.2706C111.022 61.7062 110.488 58.6187 108.437 56.6273Z" fill="#0062FF" stroke="#0062FF" stroke-width="0.390624"/>
<path d="M194.071 114.245C193.885 113.084 192.883 112.196 191.67 112.196H187.331C190.644 109.711 192.799 105.762 192.826 101.301C192.873 93.7233 186.768 87.5429 179.191 87.496C179.162 87.496 179.133 87.4956 179.104 87.4956C171.567 87.496 165.433 93.5827 165.386 101.131C165.358 105.653 167.522 109.676 170.881 112.196H167.779C166.435 112.196 165.345 113.286 165.345 114.631C165.345 116.148 165.345 120.208 165.345 121.676C165.346 123.021 166.436 124.111 167.78 124.111H191.67C193.015 124.111 194.104 123.021 194.104 121.677C194.104 114.21 194.126 114.587 194.071 114.245Z" fill="#0062FF" stroke="#0062FF" stroke-width="0.390624"/>
</svg>
